<?xml version="1.0" encoding="utf-8"?>
<!-- Generator: Adobe Illustrator 23.0.0, SVG Export Plug-In . SVG Version: 6.00 Build 0)  -->
<svg version="1.1" id="Warstwa_1" xmlns="http://www.w3.org/2000/svg" xmlns:xlink="http://www.w3.org/1999/xlink" x="0px" y="0px"
	 viewBox="0 0 714.1 714.1" style="enable-background:new 0 0 714.1 714.1;" xml:space="preserve">
<style type="text/css">
	.st0{fill:#FFFFFF;}
</style>
<g>
	<path class="st0" d="M61.7,196.1c-15.5,2.1-29.5,20.2-29.5,43.7c0,12.9,4.5,24.4,11.1,32.3l7.8,9.4L39,283.8
		c-8.5,1.7-14.8,6.2-20.1,13.5c-5.4,7.4-9.5,17.6-12.3,29.4c-5.2,21.3-6.3,47.4-6.5,70.5h28.4l7.8,104.5c19.8,4.5,40.9,4.3,60,0
		l6.9-104.5h27c0-23.3-0.3-49.8-5-71.4c-2.6-11.9-6.5-22.1-11.9-29.4c-5.4-7.3-12-11.7-21.6-13.3l-12.3-1.9l7.8-9.7
		c6.3-7.9,10.5-19.2,10.5-31.8c0-25.1-15.7-43.7-32.7-43.7L61.7,196.1z"/>
	<path class="st0" d="M222.2,196.1c-15.5,2.1-29.5,20.2-29.5,43.7c0,12.9,4.5,24.4,11.1,32.3l7.8,9.4l-12.1,2.3
		c-8.5,1.7-14.8,6.2-20.1,13.5c-5.4,7.4-9.5,17.6-12.3,29.4c-5.2,21.3-6.3,47.4-6.5,70.5h28.4l7.8,104.5c19.8,4.5,40.9,4.3,60,0
		l6.9-104.5h27c0-23.3-0.3-49.8-5-71.4c-2.6-11.9-6.5-22.1-11.9-29.4c-5.4-7.3-12-11.7-21.6-13.3l-12.3-1.9l7.8-9.7
		c6.3-7.9,10.5-19.2,10.5-31.8c0-25.1-15.7-43.7-32.7-43.7L222.2,196.1z"/>
	<path class="st0" d="M382.7,196.1c-15.5,2.1-29.5,20.2-29.5,43.7c0,12.9,4.5,24.4,11.1,32.3l7.8,9.4l-12.1,2.3
		c-8.5,1.7-14.8,6.2-20.1,13.5c-5.4,7.4-9.5,17.6-12.3,29.4c-5.2,21.3-6.3,47.4-6.5,70.5h28.4l7.8,104.5c19.8,4.5,40.9,4.3,60,0
		l6.9-104.5h27c0-23.3-0.3-49.8-5-71.4c-2.6-11.9-6.5-22.1-11.9-29.4c-5.4-7.3-12-11.7-21.6-13.3l-12.3-1.9l7.8-9.7
		c6.3-7.9,10.5-19.2,10.5-31.8c0-25.1-15.7-43.7-32.7-43.7L382.7,196.1z"/>
	<g>
		<rect x="490.1" y="148" class="st0" width="224" height="18"/>
		<path class="st0" d="M506.1,187c0,48,48,160,96,160s96-112,96-160H506.1z"/>
		<path class="st0" d="M602.1,367c-48,0-96,112-96,160h192C698.1,479,650.1,367,602.1,367z"/>
		<rect x="490.1" y="548" class="st0" width="224" height="18"/>
	</g>
</g>
</svg>
